<svg xmlns="http://www.w3.org/2000/svg" viewBox="0 0 512 512">
  <style>
    :root {
      --fg: #111111;
      --bg: #ffffff;
    }
    @media (prefers-color-scheme: dark) {
      :root {
        --fg: #ffffff;
        --bg: #111111;
      }
    }
    .stroke {
      fill: none;
      stroke: var(--fg);
      stroke-width: 12;
      stroke-linecap: round;
      stroke-linejoin: round;
    }
    .fill { fill: var(--fg); }
    .text {
      fill: var(--fg);
      font-family: Inter, SF Pro Display, Helvetica, Arial, sans-serif;
      font-size: 52px;
      font-weight: 700;
    }
    .bg { fill: var(--bg); }
  </style>
  <rect class="bg" x="8" y="8" width="496" height="496" rx="48"/>
  <circle class="fill" cx="92" cy="170" r="6"/>
  <line class="stroke" x1="120" y1="185" x2="120" y2="155"/>
  <line class="stroke" x1="150" y1="205" x2="150" y2="135"/>
  <line class="stroke" x1="180" y1="220" x2="180" y2="120"/>
  <line class="stroke" x1="210" y1="195" x2="210" y2="145"/>
  <rect class="stroke" x="245" y="90" width="72" height="150" rx="36"/>
  <line class="stroke" x1="267" y1="140" x2="295" y2="140"/>
  <line class="stroke" x1="267" y1="170" x2="295" y2="170"/>
  <path class="stroke" d="M228 215 C228 260 334 260 334 215"/>
  <line class="stroke" x1="281" y1="260" x2="281" y2="305"/>
  <line class="stroke" x1="250" y1="305" x2="312" y2="305"/>
  <path class="stroke" d="M365 115 H430 L458 143 V245 H365 Z"/>
  <path class="stroke" d="M430 115 V143 H458"/>
  <line class="stroke" x1="385" y1="165" x2="435" y2="165"/>
  <line class="stroke" x1="385" y1="190" x2="435" y2="190"/>
  <line class="stroke" x1="385" y1="215" x2="435" y2="215"/>
  <text class="text" x="256" y="420" text-anchor="middle">transcribe</text>
</svg>
